<svg xmlns="http://www.w3.org/2000/svg" xmlns:xlink="http://www.w3.org/1999/xlink" width="1080" zoomAndPan="magnify" viewBox="0 0 810 1012.49997" height="1350" preserveAspectRatio="xMidYMid meet" version="1.0"><defs><filter x="0%" y="0%" width="100%" height="100%" id="d0073fbd16"><feColorMatrix values="0 0 0 0 1 0 0 0 0 1 0 0 0 0 1 0 0 0 1 0" color-interpolation-filters="sRGB"/></filter><clipPath id="1e191b79bc"><path d="M 0.199219 0 L 809.800781 0 L 809.800781 1012 L 0.199219 1012 Z M 0.199219 0 " clip-rule="nonzero"/></clipPath><mask id="c188e3952d"><g filter="url(#d0073fbd16)"><rect x="-81" width="972" fill="#000000" y="-101.249997" height="1214.999964" fill-opacity="0.67"/></g></mask><clipPath id="71694f439f"><path d="M 0.199219 0 L 809.800781 0 L 809.800781 1012 L 0.199219 1012 Z M 0.199219 0 " clip-rule="nonzero"/></clipPath><clipPath id="0c3017e327"><path d="M 0.199219 0 L 809.800781 0 L 809.800781 1012 L 0.199219 1012 Z M 0.199219 0 " clip-rule="nonzero"/></clipPath><clipPath id="9552948384"><rect x="0" width="810" y="0" height="1012"/></clipPath><clipPath id="b448fd3fb9"><rect x="0" width="810" y="0" height="1012"/></clipPath><clipPath id="ef8e966b23"><path d="M 242.210938 216.601562 L 567.550781 216.601562 L 567.550781 795.3125 L 242.210938 795.3125 Z M 242.210938 216.601562 " clip-rule="nonzero"/></clipPath></defs><g clip-path="url(#1e191b79bc)"><g mask="url(#c188e3952d)"><g transform="matrix(1, 0, 0, 1, 0.000000000000000028, 0)"><g clip-path="url(#b448fd3fb9)"><g clip-path="url(#71694f439f)"><g transform="matrix(1, 0, 0, 1, 0.000000000000000028, 0)"><g clip-path="url(#9552948384)"><g clip-path="url(#0c3017e327)"><path fill="#545454" d="M 0.199219 0 L 809.800781 0 L 809.800781 1012 L 0.199219 1012 Z M 0.199219 0 " fill-opacity="1" fill-rule="nonzero"/></g></g></g></g></g></g></g></g><g clip-path="url(#ef8e966b23)"><path fill="#ffffff" d="M 278.507812 795.308594 L 567.816406 506.003906 L 278.503906 216.695312 L 242.210938 252.984375 L 495.230469 506.003906 L 242.214844 759.015625 Z M 278.507812 795.308594 " fill-opacity="1" fill-rule="nonzero"/></g></svg>