<svg xmlns="http://www.w3.org/2000/svg" xmlns:xlink="http://www.w3.org/1999/xlink" width="1080" zoomAndPan="magnify" viewBox="0 0 810 1012.49997" height="1350" preserveAspectRatio="xMidYMid meet" version="1.0"><defs><filter x="0%" y="0%" width="100%" height="100%" id="16b0bffb21"><feColorMatrix values="0 0 0 0 1 0 0 0 0 1 0 0 0 0 1 0 0 0 1 0" color-interpolation-filters="sRGB"/></filter><clipPath id="4fcc7596dd"><path d="M 0.199219 0 L 809.800781 0 L 809.800781 1012 L 0.199219 1012 Z M 0.199219 0 " clip-rule="nonzero"/></clipPath><mask id="f93a91d921"><g filter="url(#16b0bffb21)"><rect x="-81" width="972" fill="#000000" y="-101.249997" height="1214.999964" fill-opacity="0.67"/></g></mask><clipPath id="109a8b47a7"><path d="M 0.199219 0 L 809.800781 0 L 809.800781 1012 L 0.199219 1012 Z M 0.199219 0 " clip-rule="nonzero"/></clipPath><clipPath id="49b37b59ce"><path d="M 0.199219 0 L 809.800781 0 L 809.800781 1012 L 0.199219 1012 Z M 0.199219 0 " clip-rule="nonzero"/></clipPath><clipPath id="82bc8217cc"><rect x="0" width="810" y="0" height="1012"/></clipPath><clipPath id="6772192335"><rect x="0" width="810" y="0" height="1012"/></clipPath><clipPath id="28648de6ad"><path d="M 242.210938 216.601562 L 567.550781 216.601562 L 567.550781 795.3125 L 242.210938 795.3125 Z M 242.210938 216.601562 " clip-rule="nonzero"/></clipPath><clipPath id="8faa8b98ec"><path d="M 0.445312 0.613281 L 325.550781 0.613281 L 325.550781 579.3125 L 0.445312 579.3125 Z M 0.445312 0.613281 " clip-rule="nonzero"/></clipPath><clipPath id="bb7863229b"><rect x="0" width="326" y="0" height="580"/></clipPath></defs><g clip-path="url(#4fcc7596dd)"><g mask="url(#f93a91d921)"><g transform="matrix(1, 0, 0, 1, 0.000000000000000028, 0)"><g clip-path="url(#6772192335)"><g clip-path="url(#109a8b47a7)"><g transform="matrix(1, 0, 0, 1, 0.000000000000000028, 0)"><g clip-path="url(#82bc8217cc)"><g clip-path="url(#49b37b59ce)"><path fill="#545454" d="M 0.199219 0 L 809.800781 0 L 809.800781 1012 L 0.199219 1012 Z M 0.199219 0 " fill-opacity="1" fill-rule="nonzero"/></g></g></g></g></g></g></g></g><g clip-path="url(#28648de6ad)"><g transform="matrix(1, 0, 0, 1, 242, 216)"><g clip-path="url(#bb7863229b)"><g clip-path="url(#8faa8b98ec)"><path fill="#ffffff" d="M 289.492188 579.308594 L 0.183594 290.003906 L 289.492188 0.695312 L 325.785156 36.984375 L 72.769531 290.003906 L 325.785156 543.015625 Z M 289.492188 579.308594 " fill-opacity="1" fill-rule="nonzero"/></g></g></g></g></svg>