<?xml version="1.0" encoding="UTF-8" standalone="no"?>
<!-- Created with Inkscape (http://www.inkscape.org/) -->

<svg
   xmlns:dc="http://purl.org/dc/elements/1.1/"
   xmlns:cc="http://creativecommons.org/ns#"
   xmlns:rdf="http://www.w3.org/1999/02/22-rdf-syntax-ns#"
   xmlns:svg="http://www.w3.org/2000/svg"
   xmlns="http://www.w3.org/2000/svg"
   xmlns:sodipodi="http://sodipodi.sourceforge.net/DTD/sodipodi-0.dtd"
   xmlns:inkscape="http://www.inkscape.org/namespaces/inkscape"
   width="160.862"
   height="30.968"
   viewBox="0 0 42.561405 8.1936166"
   version="1.1"
   id="svg3126"
   inkscape:version="0.92.0 r15299"
   sodipodi:docname="guardian insurance.svg">
  <defs
     id="defs3120" />
  <sodipodi:namedview
     id="base"
     pagecolor="#ffffff"
     bordercolor="#666666"
     borderopacity="1.0"
     inkscape:pageopacity="0.0"
     inkscape:pageshadow="2"
     inkscape:zoom="5.6110896"
     inkscape:cx="79.930999"
     inkscape:cy="14.984"
     inkscape:document-units="mm"
     inkscape:current-layer="layer1"
     showgrid="false"
     fit-margin-top="0"
     fit-margin-left="0"
     fit-margin-right="0"
     fit-margin-bottom="0"
     units="px"
     inkscape:window-width="1280"
     inkscape:window-height="744"
     inkscape:window-x="-4"
     inkscape:window-y="-4"
     inkscape:window-maximized="1" />
  <metadata
     id="metadata3123">
    <rdf:RDF>
      <cc:Work
         rdf:about="">
        <dc:format>image/svg+xml</dc:format>
        <dc:type
           rdf:resource="http://purl.org/dc/dcmitype/StillImage" />
        <dc:title></dc:title>
      </cc:Work>
    </rdf:RDF>
  </metadata>
  <g
     inkscape:label="Layer 1"
     inkscape:groupmode="layer"
     id="layer1"
     transform="translate(8.6751959,-144.60424)">
    <g
       id="g3088"
       style="fill:none;fill-rule:evenodd"
       transform="matrix(0.26458333,0,0,0.26458333,-8.542904,144.73653)">
      <path
         id="path3080"
         d="M 20.061,4.272 V 0 c 0,0 -10.534,0.003 -10.628,0.007 A 8.75,8.75 0 0 0 6.362,0.679 8.892,8.892 0 0 0 2.87,3.322 9.302,9.302 0 0 0 1.027,7.28 a 9.461,9.461 0 0 0 0.111,4.185 9.236,9.236 0 0 0 1.718,3.455 8.924,8.924 0 0 0 3.14,2.5 8.606,8.606 0 0 0 4.26,0.822 8.873,8.873 0 0 0 3.031,-0.76 l 0.044,-0.02 0.052,-0.025 a 8.877,8.877 0 0 0 0.999,-0.548 c 0.067,-0.042 0.132,-0.086 0.198,-0.129 l 0.02,-0.014 0.002,-10e-4 0.02,-0.015 A 9.058,9.058 0 0 0 17.1,14.191 8.18,8.18 0 0 0 17.48,13.545 9.46,9.46 0 0 0 18.434,10.776 9.457,9.457 0 0 0 17.986,5.832 8.445,8.445 0 0 0 17.378,4.536 C 17.339,4.47 17.238,4.332 17.202,4.271 h 2.859 z M 9.717,14.004 H 9.712 C 7.1,14.004 4.984,11.825 4.984,9.138 4.984,6.45 7.1,4.272 9.712,4.272 c 0.042,0 0.085,0 0.126,0.003 h 0.02 a 4.53,4.53 0 0 1 1.134,0.179 c 1.99,0.574 3.448,2.453 3.448,4.684 0,2.498 -1.83,4.558 -4.186,4.833 l -0.123,0.014 h -0.003 a 4.275,4.275 0 0 1 -0.334,0.018 z"
         inkscape:connector-curvature="0"
         style="fill:#29aa6b" />
      <path
         id="path3082"
         d="M 9.838,29.968 C 4.414,29.968 0,25.426 0,19.843 c 0,-2.001 0.567,-3.869 1.546,-5.44 0.96,1.637 2.041,2.548 3.072,3.154 a 5.942,5.942 0 0 0 -0.454,2.286 c 0,3.22 2.546,5.84 5.674,5.84 3.13,0 5.674,-2.62 5.674,-5.84 A 5.92,5.92 0 0 0 14.634,16.726 C 13.633,15.099 11.871,14.014 9.866,14.004 H 9.788 L 9.666,14.006 C 7.665,13.987 5.961,12.69 5.29,10.868 a 9.547,9.547 0 0 1 4.548,-1.15 9.537,9.537 0 0 1 4.335,1.038 9.905,9.905 0 0 1 3.331,2.75 10.254,10.254 0 0 1 2.172,6.337 c 0,5.583 -4.413,10.125 -9.838,10.125 z"
         inkscape:connector-curvature="0"
         style="fill:#008eb1" />
      <path
         id="path3084"
         d="M 18.146,6.299 C 16.38,5.471 13.45,4.796 10.998,4.454 a 4.543,4.543 0 0 0 -1.14,-0.18 l 7.344,-0.002 c 0.037,0.06 0.137,0.2 0.176,0.266 0.24,0.411 0.44,0.847 0.608,1.295 0.057,0.154 0.11,0.31 0.16,0.466 m -3.512,10.423 a 0.079,0.079 0 0 1 -0.011,0.009 l -0.021,0.015 H 14.6 l -0.021,0.015 c -0.066,0.043 -0.13,0.087 -0.198,0.13 a 8.872,8.872 0 0 1 -0.998,0.547 C 12.899,16.265 11.586,14.755 9.895,14.045 l -0.098,-0.04 a 1.67,1.67 0 0 1 0.098,0 c 1.995,0.017 3.74,1.097 4.738,2.717"
         inkscape:connector-curvature="0"
         style="fill:#0d7b4d" />
      <path
         id="path3086"
         d="m 40.277,13.98 v 4.132 h 4.897 c -0.716,1.985 -2.633,3.658 -5.433,3.658 -3.958,0 -6.423,-3.012 -6.423,-6.52 0,-4.359 2.739,-7.051 6.579,-7.051 1.585,0 3.637,0.456 4.849,2.442 H 49.65 C 48.12,6.126 44.055,3.904 39.834,3.904 c -6.12,0 -10.962,4.637 -10.962,11.377 0,5.892 4.505,10.814 10.84,10.814 2.855,0 4.992,-0.98 6.425,-2.537 v 2.097 h 4.037 V 13.981 h -9.897 z m 22.732,6.315 c -0.975,1.223 -2.132,1.88 -3.198,1.88 -1.98,0 -3.137,-1.284 -3.137,-3.666 V 10.641 H 52.44 v 8.275 c 0,4.357 2.558,7.21 6.395,7.21 1.645,0 2.985,-0.565 4.173,-1.537 v 1.066 h 4.233 V 10.641 h -4.233 v 9.654 z M 80.473,11.52 c -1.127,-0.753 -2.497,-1.192 -4.142,-1.192 -4.02,0 -7.279,3.416 -7.279,7.836 0,4.357 3.259,7.804 7.279,7.804 1.645,0 3.015,-0.438 4.142,-1.19 v 0.877 h 4.233 V 10.641 h -4.233 v 0.878 z m 0,9.026 c -0.944,1.285 -2.193,1.724 -3.442,1.724 -2.223,0 -3.776,-1.912 -3.776,-4.106 0,-2.226 1.553,-4.169 3.776,-4.169 1.25,0 2.498,0.439 3.442,1.756 z M 91.58,10.641 h -4.234 v 15.014 h 4.233 V 16.69 c 1.218,-1.38 2.833,-2.07 5.117,-2.163 V 10.39 c -2.163,0 -3.807,0.69 -5.117,1.944 V 10.64 Z m 16.93,0.879 c -1.127,-0.753 -2.497,-1.192 -4.141,-1.192 -4.02,0 -7.28,3.448 -7.28,7.805 0,4.419 3.26,7.835 7.28,7.835 1.644,0 3.014,-0.438 4.142,-1.19 v 0.877 h 4.233 V 4.208 h -4.233 v 7.311 z m 0,9.026 c -0.944,1.316 -2.192,1.755 -3.441,1.755 -2.223,0 -3.777,-1.943 -3.777,-4.168 0,-2.195 1.554,-4.106 3.777,-4.106 1.249,0 2.497,0.438 3.442,1.724 v 4.795 z m 24.85,-9.026 c -1.128,-0.753 -2.498,-1.192 -4.143,-1.192 -4.02,0 -7.279,3.416 -7.279,7.836 0,4.357 3.259,7.804 7.28,7.804 1.644,0 3.014,-0.438 4.141,-1.19 v 0.877 h 4.233 V 10.641 h -4.233 v 0.878 z m 0,9.026 c -0.945,1.285 -2.193,1.724 -3.442,1.724 -2.223,0 -3.777,-1.912 -3.777,-4.106 0,-2.226 1.554,-4.169 3.777,-4.169 1.249,0 2.497,0.439 3.441,1.756 v 4.795 z m 15.149,-10.375 c -1.645,0 -2.985,0.564 -4.173,1.536 V 10.64 h -4.233 v 15.014 h 4.233 V 16 c 0.975,-1.222 2.132,-1.88 3.198,-1.88 1.98,0 3.137,1.285 3.137,3.667 v 7.867 h 4.234 v -8.243 c 0,-4.389 -2.559,-7.24 -6.396,-7.24 m -32.79,15.484 h 4.233 V 10.64 h -4.233 z m 0,-17.09 h 4.233 V 4.21 h -4.233 z m 44.143,0.997 c 0,0.863 -0.69,1.508 -1.51,1.508 -0.819,0 -1.508,-0.645 -1.508,-1.508 0,-0.862 0.689,-1.514 1.509,-1.514 0.82,0 1.509,0.652 1.509,1.514 z m -0.336,0 a 1.2,1.2 0 0 0 -1.18,-1.207 c -0.627,0 -1.173,0.53 -1.173,1.207 0,0.671 0.546,1.195 1.173,1.195 0.634,0 1.18,-0.524 1.18,-1.195 z m -0.9,0.18 0.366,0.485 h -0.31 l -0.341,-0.454 h -0.243 v 0.454 h -0.242 v -1.4 h 0.571 c 0.298,0 0.522,0.192 0.522,0.48 0,0.217 -0.13,0.37 -0.323,0.434 z m -0.205,-0.199 c 0.162,0 0.273,-0.096 0.273,-0.243 0,-0.14 -0.111,-0.236 -0.273,-0.236 h -0.323 v 0.48 h 0.323 z"
         inkscape:connector-curvature="0"
         style="fill:#123f50" />
    </g>
  </g>
</svg>
