<?xml version="1.0" encoding="UTF-8"?>
<svg id="SVGRoot" width="500" height="159.98" version="1.1" viewBox="0 0 500 159.97891" xmlns="http://www.w3.org/2000/svg" xmlns:cc="http://creativecommons.org/ns#" xmlns:dc="http://purl.org/dc/elements/1.1/" xmlns:rdf="http://www.w3.org/1999/02/22-rdf-syntax-ns#"><metadata><rdf:RDF><cc:Work rdf:about=""><dc:format>image/svg+xml</dc:format><dc:type rdf:resource="http://purl.org/dc/dcmitype/StillImage"/><dc:title/></cc:Work></rdf:RDF></metadata><g transform="translate(-150 -220.01)"><g fill="#231f20"><path d="m308.12 370.16h4.6783v-14.87h12.122v-4.1262h-12.122v-9.5434h12.678v-4.1131h-17.357z"/><path d="m331.3 340.97h4.9609v-4.9609h-4.9609zm0.27829 29.191h4.3957v-23.861h-4.3957z"/><path d="m343.65 370.16h4.4087v-11.048c0-5.8 2.2348-9.8131 7.2435-9.8131 3.8435 0.2391 5.0478 2.9479 5.0478 8.5174v12.344h4.3957v-14.174c0-6.413-2.7565-10.243-8.9305-10.243-3.3174 0-6.5 1.6478-7.8174 4.3565h-0.0875v-3.7999h-4.2609z"/><path d="m386.02 360.89c0 3.5565-2.2826 6.2783-6.6261 6.2783-2.013 0-4.4391-1.3652-4.4391-3.8783 0-4.2174 5.8826-4.6 8.2696-4.6 0.93914 0 1.8739 0.11092 2.7957 0.11092zm-12.813-9.1609c1.7826-1.5 4.4522-2.4348 6.9261-2.4348 4.3957 0 5.887 2.1087 5.887 6.2304-1.7174-0.0986-2.9391-0.0986-4.6783-0.0986-4.5261 0-11.078 1.8826-11.078 7.8695 0 5.1826 3.6044 7.4217 8.7478 7.4217 4.0261 0 6.3609-2.1999 7.3913-3.6478h0.0998v3.0957h4.1044c-0.0912-0.71359-0.17821-1.9739-0.17821-4.6826v-9.8783c0-6.5-2.7609-9.8609-9.5913-9.8609-3.0435 0-5.6565 0.93543-7.8522 2.2565z"/><path d="m397.5 370.16h4.3957v-11.048c0-5.8 2.2348-9.8131 7.2348-9.8131 3.8522 0.2391 5.0565 2.9479 5.0565 8.5174v12.344h4.4087v-14.174c0-6.413-2.7652-10.243-8.9305-10.243-3.3304 0-6.5174 1.6478-7.813 4.3565h-0.0961v-3.7999h-4.2565z"/><path d="m441.23 346.67c-1.2478-0.509-3.5478-0.93543-5.3348-0.93543-7.2913 0-12.152 5.2392-12.152 12.483 0 6.8478 4.9609 12.491 12.152 12.491 1.6 0 3.7044-0.13926 5.5261-0.96501l-0.32611-3.9435c-1.3652 0.89599-3.2348 1.3652-4.7348 1.3652-5.6435 0-7.9522-4.6738-7.9522-8.9478 0-4.5305 2.7739-8.9218 7.6913-8.9218 1.3957 0 3.0826 0.3303 4.7652 1.0353z"/><path d="m451.35 336.01h-4.9522v4.9609h4.9522zm-4.687 34.148h4.4087v-23.861h-4.4087z"/><path d="m472.92 360.89c0 3.5565-2.3 6.2783-6.6392 6.2783-2.013 0-4.4478-1.3652-4.4478-3.8783 0-4.2174 5.887-4.6 8.2783-4.6 0.92607 0 1.8652 0.11092 2.8087 0.11092zm-12.822-9.1609c1.7696-1.5 4.4391-2.4348 6.9131-2.4348 4.4087 0 5.9087 2.1087 5.9087 6.2304-1.7348-0.0986-2.9565-0.0986-4.6783-0.0986-4.5435 0-11.087 1.8826-11.087 7.8695 0 5.1826 3.587 7.4217 8.7522 7.4217 4.0087 0 6.3609-2.1999 7.3783-3.6478h0.0912v3.0957h4.1304c-0.0998-0.71359-0.20434-1.9739-0.20434-4.6826v-9.8783c0-6.5-2.7609-9.8609-9.5826-9.8609-3.0348 0-5.6522 0.93543-7.8609 2.2565z"/><path d="m484.94 370.16h4.387v-35.078h-4.387z"/><path d="m533.71 338.59c-2.7174-0.93913-4.813-1.6304-9.5913-1.6304-9.9609 0-17.261 6.6782-17.261 16.739 0 10.378 6.8826 17.017 17.226 17.017 5.1 0 8.1826-0.83931 9.9652-1.439v-16.974h-11.548v3.8305h6.8565v9.9044c-1.1696 0.24403-2.0087 0.5657-5.2391 0.5657-6.7696 0-12.296-5.0957-12.296-12.761 0-7.2912 5.0044-12.774 12.53-12.774 4.2217 0 6.6913 0.7518 8.9739 2.2479z"/><path d="m540.72 370.16h4.3913v-10.852c0-5.9957 2.5696-9.7348 6.5044-9.7348 0.7391 0 1.6435 0.0986 2.4348 0.43012v-3.939c-0.93482-0.18241-1.5957-0.32167-2.9044-0.32167-2.5304 0-5.0609 1.7826-6.2304 4.2608h-0.0777v-3.7043h-4.1174z"/><path d="m560.82 358.22c0-4.5261 2.7565-8.9174 7.487-8.9174 4.6783 0 7.4261 4.3914 7.4261 8.9174 0 4.2782-2.287 8.9479-7.4261 8.9479-5.2044 0-7.487-4.6697-7.487-8.9479m-4.6783 0c0 6.8478 4.9522 12.491 12.165 12.491 7.1565 0 12.109-5.6436 12.109-12.491 0-7.2391-4.8609-12.478-12.109-12.478-7.3044 0-12.165 5.2392-12.165 12.478"/><path d="m606.21 346.3h-4.4v11.048c0 5.787-2.2565 9.8217-7.2609 9.8217-3.8261-0.24772-5.0304-2.9565-5.0304-8.5131v-12.356h-4.4087v14.178c0 6.4087 2.7696 10.235 8.9348 10.235 3.3218 0 6.5-1.6304 7.8131-4.3479h0.087v3.7956h4.2652z"/><path d="m630.51 358.13c0.1 3.7435-1.8739 9.0391-6.5913 9.0391-4.9565 0-7.0261-4.913-7.0261-8.8956 0-4.4348 2.3-8.9782 7.0783-8.9782 4.7609 0 6.6392 4.5434 6.5392 8.8348m-18 21.857h4.3826v-13.104h0.1c1.3522 2.2001 3.7348 3.8305 7.9609 3.8305 7.1826 0 10.235-6.3522 10.235-12.9 0-6.4088-3.3739-12.074-10.291-12.074-4.2087 0-6.9261 2.1566-8.087 3.9304h-0.087v-3.3695h-4.213z"/></g><g fill="#960a2c"><path d="m163.27 224.8h115.4c7.3261 0 13.283 5.9478 13.283 13.274v119.09c0 7.3218-5.9566 13.265-13.283 13.265h-26.37c-2.9478-2.5522-6.4652-5.5435-7.8087-6.4435-1.8565-1.2348-3.3304-2.0869-2.5-3.7478 1.4522-2.8956 2.8-6.6609 3.8-6.3305 1.0131 0.3303 5.6783 0.99952 7 1.6696 0.66959 0.3266 3.3348 0.3266 6-0.99953 4.3348-2 5.3348-5.3218 6.0044-5.6565 0.66084-0.34386 1.9957-2.3305 1.9957-2.3305s1-1.0094 1-2.3392c0.32611-1.6652 0.66085-5-0.66528-6.9912-1.0043-1.6739-3.3348-4.0174-4.9957-4.6783-2.3391-0.99952-3.0044-1.6653-3.0044-3.3262-0.33473-1.3304 2.6652-1.6695 3.0044-3.9999 0-1.4174-0.79136-2.6783-2.1783-2.6783v-0.52133c1.1913-0.14296 3.1739-0.79617 2.8391-2.8-0.33042-1.9999-1.6609-3.3304-1.6609-3.3304s-0.33474-1.9957 0.66084-2.6696c1.3348-0.66553 4.3304 0 6.6609-0.3303 2.3391-0.33523 4.6739-0.66553 4.6739-3 0-3.6652-2.3348-5.9912-4.6739-9.6566-2.3304-3.6738-4.6609-5.9957-4.9957-6.6696-0.33043-0.99582-0.42175-2.2565-0.42175-2.2565s2.1-1.7739 2.7391-2.3869c1.1913-1.156 2.6652-2.761 1.6739-4.7565-0.33917-0.99583-1.6696-0.99583-2.3435-1.9914-1-1.0082-0.66528-3.0042-1.6652-4.0087-0.66959-0.99582-0.66959-2.9999-1.6652-4.6608-0.66959-1.9957-1.6478-5.3522-1.6478-5.3522s3.6087-2.3261 3.9391-3.3305c1.6652-3.9913 1.3913-6.9131 1.3913-6.9131s1.3348-5.3304-2-8.6652c-0.9957-1.3261-2.3261-2.6609-3.6652-3.3218-2-1.3391-3.9957-2.6609-5.3305-3.3348-2.3304-1.0044-5.3-1.7565-7.6391-2.4173-2.3304-1.0044-3.3392-1.0044-4.3348-1.0044-1.3261 0.33892-2.6609 0.33892-3.3261 0-1.0043 0-5-1.3304-7.3392-0.99583-1.987 0-4.6565 1.3348-8.9957 1.6609-4.3218 0.66923-7.9913-0.3266-10.322 0.33893-2.3348 0.99952-3.6609 0.66059-5 1.3348-1.3348 0.66553-3.0261 1.0821-3.0261 1.0821s-2.3304 0.67415-3.3261 0.99582c-0.66515 0.66923-2.6652 2.0044-2.6652 2.0044l-2.0044 2.0043c-0.66528 0-2.6609 0.99583-2.9957 1.6522l-1.3348 1.3391s-0.9957 0.33523-1.6652 0.99952c-0.67391 0.6606-2.0044 2.6652-2.6652 2.9913-1.0043 0.33893-2.0782 1.3348-4.413 3.3348-2.3304 2.3392-4.9957 5.6696-5.3348 6.6652-0.33473 0.66922-1.9956 4.0087-1.9956 4.6695-0.33918 1.0044-1 4.3348-1.6652 4.987-0.33917 0.66923-2.3348 4.674-2.3348 5.3434-0.33042 0.9909-0.33042 4.3305-0.66959 5.3218-0.33043 1.0044-1.6652 5.0087-1.6652 8.0088 0 2.6652 1.6652 4.6566 1.6652 5.6652 0.33917 0.9909 1 5.6522 1 7.6565 0.33474 1.6739 1.9218 7.3304 2.5826 8.6696 0.33042 1.3261 1.6739 3 1.6739 3s0.85212 3.2347 2.8522 5.2478c2 2.3391 4 4.7435 4.9956 5.4131 2 1.6478 2.5 5.8218 2.5 5.8218s-3.0826 0.58665-3.7522 1.2522c-0.66516 0.99952-3.4087 8.0956-6.2435 12.913-2.687 4.5739-7.4652 9.1261-7.7739 11.161-0.2826 1.8521 2.1913 3.4999 1.5217 3.8305-0.38255 0.19966-3.213 3.8434-5.5218 6.8608h-1.9696c-7.3218 0-13.274-5.9435-13.274-13.265v-119.09c0-7.3261 5.9522-13.274 13.274-13.274"/><path d="m319.57 278.94c0 4.8217-0.10476 12.117-0.33042 17.73-0.11708 3.0304-0.79567 4.9435-9.6566 4.9435-2.5826 0-2.5826 0.67416-2.5826 1.9087 0 1.0082 0 1.4565 0.90438 1.4565 0.77398 0 1.2348-0.22185 17.722-0.22185 43.887 0 40.431 0.22185 41.665 0.22185 0.56521 0 1.0174-0.22185 1.113-0.896 1.9217-11.335 4.2652-20.548 4.2652-21.1 0-1.0131-0.20865-1.3521-2.3435-1.3521-1.0088 0-0.81305 0.77768-1.5696 3.1391-4.7348 14.491-10.391 16.5-25.952 16.5-8.5305 0-11.665-0.55214-11.796-4.6-0.21309-5.6131-0.32167-12.909-0.32167-17.73v-27.5c0-7.9696 0.10846-10.665 0.22603-15.83 0.0961-6.6131 2.0174-7.5175 11.778-7.5175 1.2305 0 1.2305-0.90462 1.2305-1.913 0-0.66552-0.22172-1.4565-1.0131-1.4565-0.88257 0-10.657 0.44739-17.835 0.44739-7.0739 0-16.274-0.44739-17.17-0.44739-0.79123 0-1.0174 0.79124-1.0174 1.4565 0 1.0094 0 1.913 1.2348 1.913 9.2044 0 11.117 0.90463 11.222 7.5175 0.12201 5.1652 0.22603 7.8609 0.22603 15.83z"/><path d="m385.27 237.07c3.3696 0 5.8392-2.9218 5.8392-5.9478 0-3.0305-2.4696-5.9522-5.8392-5.9522-3.3696 0-5.8435 2.9217-5.8435 5.9522 0 3.026 2.4739 5.9478 5.8435 5.9478"/><path d="m484.51 300.04c-17.174 0-19.078-14.035-19.078-19.087 0-18.404 8.7478-23.791 15.826-23.791 5.8304 0 6.6261 3.5913 6.9522 5.2695 1.2305 6.1826 1.6913 7.3044 5.2696 7.3044 4.1652 0 5.9522-3.4827 5.9522-4.8305 0-2.3565-2.9-10.661-18.283-10.661-14.491 0-25.487 10.096-25.487 26.709 0 16.056 10.213 25.374 23.244 25.374 7.3957 0 13.904-3.0305 19.626-9.5435 0.69572-0.66922 0.89994-1.2348 0.89994-1.6782 0-0.79124-1.3391-1.5697-1.6652-1.5697-0.57395 0-1.0174 1.0045-1.9217 1.7871-2.2348 1.9087-7.1913 4.7174-11.335 4.7174"/><path d="m553.78 280.28c0-15.148-11.126-26.039-26.161-26.039-14.935 0-26.026 11.226-26.026 26.039 0 14.93 10.657 26.044 26.026 26.044 15.704 0 26.161-10.33 26.161-26.044m-10.687 0c0 9.5348-2.2304 23.117-15.474 23.117-13.139 0-15.37-13.583-15.37-23.117 0-10.996 3.6957-23.117 15.37-23.117 11.791 0 15.474 12.122 15.474 23.117"/><path d="m389.87 270.07v24.244c0 6.3956 0.22603 7.7435 5.1652 7.7435h7.0609c2.9218 0 3.9218-1.1302 4.6044-2.6958 0.43912-1.0082 0.66959-8.9782 0.66959-16.165v-15.378c0-3.9174-1.0131-6.1739-6.6131-6.7304-0.90869-0.12325-1.0261-0.55708-1.0261-1.3521 0-0.89107 0.34348-1.4479 0.90437-1.5697 12.787-2.5826 14.37-5.4912 15.704-5.4912 0.23047 0 0.35655 0.33523 0.35655 1.23 0 0.66552-0.23047 3.1478-0.23047 8.0913 5.8217-3.9435 11.561-7.7522 17.617-7.7522 3.813 0 14.822 0.77891 14.822 16.83v26.931c0 1.913 0.33918 4.0522 7.2913 4.0522 1.1261 0 1.1261 0.67416 1.1261 1.4608 0 0.66923 0 1.4478-1.5739 1.4478-3.3652 0-5.3957-0.21321-11.335-0.21321-9.0957 0-10.9 0.21321-11.783 0.21321-0.69559 0-0.79123-0.77768-0.79123-1.3391 0-0.56077 0.23047-1.5695 1.5739-1.5695 5.3826 0 6.3913-0.44738 6.3913-4.1523v-20.096c0-10.43-0.90007-17.396-12.57-17.396-4.2478 0-10.326 3.8174-10.77 5.1609v28.739c0 6.3956 0.23047 7.7435 5.1565 7.7435 3.0304 0 3.2652 0.11092 3.2652 1.4608 0 0.66923 0 1.4478-1.1347 1.4478-0.55658 0-15.583-0.21321-25.552-0.21321-10.152 0-24.383 0.21321-26.057 0.21321-0.90869 0-0.90869-0.66553-0.90869-1.2347 0-1.4436 0.11339-1.6739 4.2739-1.6739 2.9218 0 3.9218-1.1302 4.6-2.6958 0.45219-1.0082 0.67822-8.9782 0.67822-16.165v-15.378c0-3.9174-1.0174-6.1739-6.6304-6.7304-0.89994-0.12325-1.0086-0.55708-1.0086-1.3521 0-0.89107 0.33917-1.4479 0.90869-1.5697 12.791-2.5826 14.352-5.4912 15.704-5.4912 0.43912 0 0.6739 0.55707 0.6739 1.23 0 0.44368-0.5652 1.5696-0.5652 16.165"/><path d="m570.27 237.41v56.909c0 6.4 0.23043 7.7478 5.1739 7.7478h5.8435c2.9217 0 3.9261-1.1302 4.5913-2.6956 0.45653-1.0094 0.68261-8.9783 0.68261-16.165v-15.378c0-3.9217-1.0044-6.1739-6.6218-6.7348-0.90435-0.12325-1-0.56077-1-1.3478 0-0.89969 0.33044-1.4522 0.88261-1.5695 12.796-2.5826 14.383-5.4913 15.717-5.4913 0.22608 0 0.33914 0.3303 0.33914 1.23 0 0.66553-0.22609 3.1435-0.22609 8.0827 5.8392-3.9349 11.561-7.7478 17.622-7.7478 3.8087 0 14.809 0.78261 14.809 16.835v26.931c0 1.913 0.16956 4.0522 7.1261 4.0522 1.1218 0 1.1218 0.66922 1.1218 1.4608 0 0.66922 0 1.4479-1.5696 1.4479-3.3696 0-5.2087-0.21322-11.152-0.21322-9.0913 0-10.904 0.21322-11.796 0.21322-0.68261 0-0.78261-0.77891-0.78261-1.3435 0-0.55707 0.23043-1.5652 1.5783-1.5652 5.3826 0 6.4-0.44739 6.4-4.1522v-20.096c0-10.431-0.91304-17.396-12.578-17.396-4.2696 0-10.335 3.8174-10.778 5.1566v28.739c0 6.4 0.22608 7.7478 5.1652 7.7478 3.0304 0 3.2609 0.0986 3.2609 1.4608 0 0.66922 0 1.4479-1.113 1.4479-0.58696 0-15.191-0.21322-24.891-0.21322-9.7478 0-23.839 0.21322-24.978 0.21322-0.89132 0-0.89132-0.66553-0.89132-1.2348 0-1.4434 0.11709-1.6739 4.2696-1.6739 2.3522 0 3.3652-1.1302 4.0348-2.6956 0.45219-1.0094 0.6696-15.835 0.6696-20.661v-39.278c0-9.7608-0.33042-11.113-6.5044-11.67-0.66959-0.11092-1.0131-0.5657-1.0131-1.3435 0-0.8997 0.34349-1.4653 0.89994-1.5783 9.0957-1.5695 14.483-4.8261 15.609-4.8261 0.43913 0 0.66522 0.56077 0.66522 1.23 0 0.44368-0.56522 1.574-0.56522 16.165"/><path d="m308.12 321.25h326.64v2.3392h-326.64z"/></g><path d="m638.12 349.26c0 3.2826 2.6565 5.9522 5.9435 5.9522 3.2696 0 5.9348-2.6695 5.9348-5.9522 0-3.2739-2.6652-5.9391-5.9348-5.9391-3.287 0-5.9435 2.6652-5.9435 5.9391m1.1 0c0-2.874 2.0609-5.1087 4.8609-5.1087 2.7565 0 4.8391 2.2347 4.8391 5.1087 0 2.8826-2.0826 5.1087-4.8391 5.1087-2.8 0-4.8609-2.2261-4.8609-5.1087m3.7826-2.4348h1.2565c0.69566 0 1.3435 0.22184 1.3435 0.96132 0 0.843-0.51305 1.0168-1.3435 1.0168h-1.2565zm-1.0565 5.6783h1.0565v-2.8738h0.8913l1.8261 2.8738h1.113l-1.8522-2.8738c1.0304 0 1.6783-0.73455 1.6783-1.8 0-1.2263-0.73477-1.8304-2.2261-1.8304h-2.487z" fill="#231f20"/></g></svg>
